<?xml version="1.0" standalone="no"?>
<!DOCTYPE svg PUBLIC "-//W3C//DTD SVG 20010904//EN"
 "http://www.w3.org/TR/2001/REC-SVG-20010904/DTD/svg10.dtd">
<svg version="1.0" xmlns="http://www.w3.org/2000/svg"
 width="537.000000pt" height="477.000000pt" viewBox="0 0 537.000000 477.000000"
 preserveAspectRatio="xMidYMid meet">

<g transform="translate(0.000000,477.000000) scale(0.100000,-0.100000)"
fill="#000000" stroke="none">
<path d="M0 2385 l0 -2385 2685 0 2685 0 0 2385 0 2385 -2685 0 -2685 0 0
-2385z m2346 1300 l39 -85 75 7 c99 10 516 10 605 0 l70 -8 43 86 c32 65 47
85 62 85 72 0 366 -82 540 -151 l129 -51 40 -62 c258 -400 401 -793 451 -1236
12 -105 13 -507 2 -557 -5 -24 -22 -42 -67 -74 -206 -144 -417 -251 -682 -344
l-92 -33 -49 72 c-64 92 -133 216 -127 225 2 5 26 16 52 26 26 10 88 38 136
63 l88 44 -33 23 c-31 22 -35 22 -68 8 -272 -116 -509 -166 -800 -165 -188 0
-314 15 -483 57 -96 24 -264 83 -320 112 -26 13 -30 12 -57 -11 l-30 -24 43
-24 c46 -26 82 -43 170 -82 31 -14 57 -28 57 -31 0 -32 -164 -285 -184 -285
-52 0 -403 148 -541 228 -110 63 -270 169 -286 189 -22 26 -19 502 4 658 37
249 89 439 183 668 95 232 264 526 323 560 53 32 299 117 436 152 239 62 224
64 271 -40z"/>
<path d="M2116 2700 c-139 -54 -222 -232 -182 -388 58 -226 296 -316 458 -172
84 74 131 208 110 313 -16 78 -36 118 -87 175 -77 86 -192 114 -299 72z"/>
<path d="M3225 2708 c-77 -29 -147 -98 -184 -183 -7 -16 -15 -66 -18 -110 -4
-65 -1 -90 16 -135 30 -80 74 -134 139 -172 51 -29 65 -33 132 -33 67 0 81 4
132 33 106 61 162 172 156 307 -6 129 -69 229 -177 281 -43 21 -154 28 -196
12z"/>
</g>
</svg>
